<mxfile host="app.diagrams.net" modified="2023-01-06T13:34:42.489Z" agent="5.0 (X11)" etag="LwehakZFeDdVjcxqvsyo" version="20.0.1" type="github">
  <diagram id="X5onZbGO3E0A-Uq4bgL8" name="Page-1">
    <mxGraphModel dx="2236" dy="712" grid="1" gridSize="10" guides="1" tooltips="1" connect="1" arrows="1" fold="1" page="1" pageScale="1" pageWidth="850" pageHeight="1100" math="0" shadow="0">
      <root>
        <mxCell id="0" />
        <mxCell id="1" parent="0" />
        <mxCell id="JPJ5kOIXcdTxkHpj3iD7-18" style="edgeStyle=orthogonalEdgeStyle;rounded=0;orthogonalLoop=1;jettySize=auto;html=1;exitX=1;exitY=0.5;exitDx=0;exitDy=0;entryX=0;entryY=0.5;entryDx=0;entryDy=0;" edge="1" parent="1" source="JPJ5kOIXcdTxkHpj3iD7-2" target="JPJ5kOIXcdTxkHpj3iD7-7">
          <mxGeometry relative="1" as="geometry" />
        </mxCell>
        <mxCell id="JPJ5kOIXcdTxkHpj3iD7-22" style="edgeStyle=orthogonalEdgeStyle;rounded=0;orthogonalLoop=1;jettySize=auto;html=1;entryX=0.5;entryY=0;entryDx=0;entryDy=0;exitX=0.5;exitY=1;exitDx=0;exitDy=0;" edge="1" parent="1" source="JPJ5kOIXcdTxkHpj3iD7-2" target="JPJ5kOIXcdTxkHpj3iD7-21">
          <mxGeometry relative="1" as="geometry" />
        </mxCell>
        <mxCell id="JPJ5kOIXcdTxkHpj3iD7-2" value="MemTable::Get()" style="rounded=1;whiteSpace=wrap;html=1;absoluteArcSize=1;arcSize=14;strokeWidth=2;" vertex="1" parent="1">
          <mxGeometry x="120" y="480" width="160" height="50" as="geometry" />
        </mxCell>
        <mxCell id="JPJ5kOIXcdTxkHpj3iD7-5" style="edgeStyle=orthogonalEdgeStyle;rounded=0;orthogonalLoop=1;jettySize=auto;html=1;" edge="1" parent="1" source="JPJ5kOIXcdTxkHpj3iD7-3" target="JPJ5kOIXcdTxkHpj3iD7-4">
          <mxGeometry relative="1" as="geometry" />
        </mxCell>
        <mxCell id="JPJ5kOIXcdTxkHpj3iD7-14" value="current_version" style="edgeLabel;html=1;align=center;verticalAlign=middle;resizable=0;points=[];" vertex="1" connectable="0" parent="JPJ5kOIXcdTxkHpj3iD7-5">
          <mxGeometry x="-0.5742" y="3" relative="1" as="geometry">
            <mxPoint x="93" y="63" as="offset" />
          </mxGeometry>
        </mxCell>
        <mxCell id="JPJ5kOIXcdTxkHpj3iD7-6" style="edgeStyle=orthogonalEdgeStyle;rounded=0;orthogonalLoop=1;jettySize=auto;html=1;" edge="1" parent="1" source="JPJ5kOIXcdTxkHpj3iD7-3" target="JPJ5kOIXcdTxkHpj3iD7-2">
          <mxGeometry relative="1" as="geometry" />
        </mxCell>
        <mxCell id="JPJ5kOIXcdTxkHpj3iD7-11" value="mem" style="edgeLabel;html=1;align=center;verticalAlign=middle;resizable=0;points=[];" vertex="1" connectable="0" parent="JPJ5kOIXcdTxkHpj3iD7-6">
          <mxGeometry x="0.1765" relative="1" as="geometry">
            <mxPoint y="51" as="offset" />
          </mxGeometry>
        </mxCell>
        <mxCell id="JPJ5kOIXcdTxkHpj3iD7-13" style="edgeStyle=orthogonalEdgeStyle;rounded=0;orthogonalLoop=1;jettySize=auto;html=1;" edge="1" parent="1" source="JPJ5kOIXcdTxkHpj3iD7-3" target="JPJ5kOIXcdTxkHpj3iD7-12">
          <mxGeometry relative="1" as="geometry" />
        </mxCell>
        <mxCell id="JPJ5kOIXcdTxkHpj3iD7-15" value="imm" style="edgeLabel;html=1;align=center;verticalAlign=middle;resizable=0;points=[];" vertex="1" connectable="0" parent="JPJ5kOIXcdTxkHpj3iD7-13">
          <mxGeometry x="-0.2667" y="2" relative="1" as="geometry">
            <mxPoint as="offset" />
          </mxGeometry>
        </mxCell>
        <mxCell id="JPJ5kOIXcdTxkHpj3iD7-3" value="DBImpl::Get" style="strokeWidth=2;html=1;shape=mxgraph.flowchart.start_1;whiteSpace=wrap;" vertex="1" parent="1">
          <mxGeometry x="350" y="330" width="100" height="60" as="geometry" />
        </mxCell>
        <mxCell id="JPJ5kOIXcdTxkHpj3iD7-19" style="edgeStyle=orthogonalEdgeStyle;rounded=0;orthogonalLoop=1;jettySize=auto;html=1;entryX=1;entryY=0.5;entryDx=0;entryDy=0;" edge="1" parent="1" source="JPJ5kOIXcdTxkHpj3iD7-4" target="JPJ5kOIXcdTxkHpj3iD7-7">
          <mxGeometry relative="1" as="geometry" />
        </mxCell>
        <mxCell id="JPJ5kOIXcdTxkHpj3iD7-26" style="edgeStyle=orthogonalEdgeStyle;rounded=0;orthogonalLoop=1;jettySize=auto;html=1;entryX=0.5;entryY=0;entryDx=0;entryDy=0;" edge="1" parent="1" source="JPJ5kOIXcdTxkHpj3iD7-4" target="JPJ5kOIXcdTxkHpj3iD7-25">
          <mxGeometry relative="1" as="geometry">
            <Array as="points">
              <mxPoint x="600" y="560" />
              <mxPoint x="840" y="560" />
            </Array>
          </mxGeometry>
        </mxCell>
        <mxCell id="JPJ5kOIXcdTxkHpj3iD7-4" value="Version::Get()" style="rounded=1;whiteSpace=wrap;html=1;absoluteArcSize=1;arcSize=14;strokeWidth=2;" vertex="1" parent="1">
          <mxGeometry x="520" y="480" width="160" height="50" as="geometry" />
        </mxCell>
        <mxCell id="JPJ5kOIXcdTxkHpj3iD7-30" style="edgeStyle=orthogonalEdgeStyle;rounded=0;orthogonalLoop=1;jettySize=auto;html=1;entryX=0.5;entryY=0;entryDx=0;entryDy=0;" edge="1" parent="1" source="JPJ5kOIXcdTxkHpj3iD7-7" target="JPJ5kOIXcdTxkHpj3iD7-29">
          <mxGeometry relative="1" as="geometry" />
        </mxCell>
        <mxCell id="JPJ5kOIXcdTxkHpj3iD7-7" value="Version::UpdateStats()" style="rounded=1;whiteSpace=wrap;html=1;absoluteArcSize=1;arcSize=14;strokeWidth=2;" vertex="1" parent="1">
          <mxGeometry x="320" y="670" width="160" height="50" as="geometry" />
        </mxCell>
        <mxCell id="JPJ5kOIXcdTxkHpj3iD7-20" style="edgeStyle=orthogonalEdgeStyle;rounded=0;orthogonalLoop=1;jettySize=auto;html=1;entryX=0.5;entryY=0;entryDx=0;entryDy=0;" edge="1" parent="1" source="JPJ5kOIXcdTxkHpj3iD7-12" target="JPJ5kOIXcdTxkHpj3iD7-7">
          <mxGeometry relative="1" as="geometry" />
        </mxCell>
        <mxCell id="JPJ5kOIXcdTxkHpj3iD7-12" value="MemTable::Get()" style="rounded=1;whiteSpace=wrap;html=1;absoluteArcSize=1;arcSize=14;strokeWidth=2;" vertex="1" parent="1">
          <mxGeometry x="320" y="480" width="160" height="50" as="geometry" />
        </mxCell>
        <mxCell id="JPJ5kOIXcdTxkHpj3iD7-24" style="edgeStyle=orthogonalEdgeStyle;rounded=0;orthogonalLoop=1;jettySize=auto;html=1;" edge="1" parent="1" source="JPJ5kOIXcdTxkHpj3iD7-21" target="JPJ5kOIXcdTxkHpj3iD7-23">
          <mxGeometry relative="1" as="geometry" />
        </mxCell>
        <mxCell id="JPJ5kOIXcdTxkHpj3iD7-21" value="Lookup::memtable_key()" style="rounded=1;whiteSpace=wrap;html=1;absoluteArcSize=1;arcSize=14;strokeWidth=2;" vertex="1" parent="1">
          <mxGeometry x="-80" y="600" width="160" height="50" as="geometry" />
        </mxCell>
        <mxCell id="JPJ5kOIXcdTxkHpj3iD7-23" value="Table::Iterator::Seek()" style="rounded=1;whiteSpace=wrap;html=1;absoluteArcSize=1;arcSize=14;strokeWidth=2;" vertex="1" parent="1">
          <mxGeometry x="-80" y="720" width="160" height="50" as="geometry" />
        </mxCell>
        <mxCell id="JPJ5kOIXcdTxkHpj3iD7-28" style="edgeStyle=orthogonalEdgeStyle;rounded=0;orthogonalLoop=1;jettySize=auto;html=1;entryX=0.5;entryY=0;entryDx=0;entryDy=0;" edge="1" parent="1" source="JPJ5kOIXcdTxkHpj3iD7-25" target="JPJ5kOIXcdTxkHpj3iD7-27">
          <mxGeometry relative="1" as="geometry" />
        </mxCell>
        <mxCell id="JPJ5kOIXcdTxkHpj3iD7-25" value="Version::ForEachOverlapping()" style="rounded=1;whiteSpace=wrap;html=1;absoluteArcSize=1;arcSize=14;strokeWidth=2;" vertex="1" parent="1">
          <mxGeometry x="720" y="600" width="240" height="50" as="geometry" />
        </mxCell>
        <mxCell id="JPJ5kOIXcdTxkHpj3iD7-27" value="FindFile()" style="rounded=1;whiteSpace=wrap;html=1;absoluteArcSize=1;arcSize=14;strokeWidth=2;" vertex="1" parent="1">
          <mxGeometry x="720" y="720" width="240" height="50" as="geometry" />
        </mxCell>
        <mxCell id="JPJ5kOIXcdTxkHpj3iD7-29" value="DBImpl::MaybeScheduleCompaction" style="rounded=1;whiteSpace=wrap;html=1;absoluteArcSize=1;arcSize=14;strokeWidth=2;" vertex="1" parent="1">
          <mxGeometry x="270" y="800" width="260" height="40" as="geometry" />
        </mxCell>
      </root>
    </mxGraphModel>
  </diagram>
</mxfile>
